name analog
datacolumns 19
datarows 63
range 0.17550000000000002 0.20650000000000002
endheader
time	ground_force_vx	ground_force_vy	ground_force_vz	ground_force_px	ground_force_py	ground_force_pz	l_ground_force_vx	l_ground_force_vy	l_ground_force_vz	l_ground_force_px	l_ground_force_py	l_ground_force_pz	ground_torque_x	ground_torque_y	ground_torque_z	l_ground_torque_x	l_ground_torque_y	l_ground_torque_z
0.17550000000000002	-0.0	-0.0	-0.0	-0.0	-0.0	-0.0	-11.53240203857422	4.764216423034668	-807.6488037109375	-0.0	-0.0	-0.0	-0.0	-0.0	-0.0	228905.25	8642.31640625	-5056.80322265625
0.176	-0.0	-0.0	-0.0	-0.0	-0.0	-0.0	-11.192977905273438	3.97959303855896	-807.2183227539062	-0.0	-0.0	-0.0	-0.0	-0.0	-0.0	228365.8125	8777.3212890625	-4962.56298828125
0.1765	-0.0	-0.0	-0.0	-0.0	-0.0	-0.0	-11.365184783935549	3.694271326065064	-807.1782836914062	-0.0	-0.0	-0.0	-0.0	-0.0	-0.0	227791.28125	8815.9228515625	-4999.23388671875
0.177	-0.0	-0.0	-0.0	-0.0	-0.0	-0.0	-11.82898235321045	2.9297726154327397	-807.4478149414062	-0.0	-0.0	-0.0	-0.0	-0.0	-0.0	226979.34375	8735.5556640625	-5109.88330078125
0.1775	-0.0	-0.0	-0.0	-0.0	-0.0	-0.0	-12.503183364868164	2.384685516357422	-806.25048828125	-0.0	-0.0	-0.0	-0.0	-0.0	-0.0	226682.328125	8400.552734375	-5087.5751953125
0.178	-0.0	-0.0	-0.0	-0.0	-0.0	-0.0	-12.232089042663574	1.6731343269348145	-807.6270141601562	-0.0	-0.0	-0.0	-0.0	-0.0	-0.0	226590.609375	7908.8330078125	-5243.76318359375
0.1785	-0.0	-0.0	-0.0	-0.0	-0.0	-0.0	-11.665075302124023	1.2901736497879028	-811.0596313476562	-0.0	-0.0	-0.0	-0.0	-0.0	-0.0	226533.421875	7239.71337890625	-4698.2119140625
0.179	-0.0	-0.0	-0.0	-0.0	-0.0	-0.0	-10.364357948303224	0.3483738303184509	-812.4952392578125	-0.0	-0.0	-0.0	-0.0	-0.0	-0.0	226472.96875	6668.8720703125	-4361.29638671875
0.1795	-0.0	-0.0	-0.0	-0.0	-0.0	-0.0	-9.40824031829834	-0.9666629433631896	-815.57958984375	-0.0	-0.0	-0.0	-0.0	-0.0	-0.0	226235.96875	6302.49853515625	-4008.306884765625
0.18	-0.0	-0.0	-0.0	-0.0	-0.0	-0.0	-8.76292610168457	-1.854755401611328	-816.7421875	-0.0	-0.0	-0.0	-0.0	-0.0	-0.0	226271.265625	5662.8408203125	-3861.4033203125
0.1805	-0.0	-0.0	-0.0	-0.0	-0.0	-0.0	-8.329143524169922	-2.379871368408203	-815.65625	-0.0	-0.0	-0.0	-0.0	-0.0	-0.0	226083.46875	5499.31884765625	-3736.11279296875
0.181	-0.0	-0.0	-0.0	-0.0	-0.0	-0.0	-8.170988082885742	-2.487337350845337	-815.6748046875	-0.0	-0.0	-0.0	-0.0	-0.0	-0.0	225322.296875	5181.10791015625	-3675.157958984375
0.1815	-0.0	-0.0	-0.0	-0.0	-0.0	-0.0	-7.969689846038818	-2.752190351486206	-815.693115234375	-0.0	-0.0	-0.0	-0.0	-0.0	-0.0	225051.515625	5060.16845703125	-3647.0849609375
0.182	-0.0	-0.0	-0.0	-0.0	-0.0	-0.0	-8.15192699432373	-3.0818352699279785	-816.2606201171875	-0.0	-0.0	-0.0	-0.0	-0.0	-0.0	224152.96875	5218.54541015625	-3709.837890625
0.1825	-0.0	-0.0	-0.0	-0.0	-0.0	-0.0	-7.899954795837402	-3.379596948623657	-815.3614501953125	-0.0	-0.0	-0.0	-0.0	-0.0	-0.0	223633.6875	5054.703125	-3706.631591796875
0.183	-0.0	-0.0	-0.0	-0.0	-0.0	-0.0	-7.904575347900391	-4.332399845123291	-816.886474609375	-0.0	-0.0	-0.0	-0.0	-0.0	-0.0	223030.828125	4944.6728515625	-3713.169677734375
0.1835	-0.0	-0.0	-0.0	-0.0	-0.0	-0.0	-7.801918983459473	-4.769371032714844	-813.1923217773438	-0.0	-0.0	-0.0	-0.0	-0.0	-0.0	222062.109375	4404.14111328125	-3453.981689453125
0.184	-0.0	-0.0	-0.0	-0.0	-0.0	-0.0	-7.456298351287842	-5.410484790802002	-812.806884765625	-0.0	-0.0	-0.0	-0.0	-0.0	-0.0	221871.90625	4285.45849609375	-3305.5283203125
0.1845	-0.0	-0.0	-0.0	-0.0	-0.0	-0.0	-6.644198894500732	-6.024014949798584	-811.410400390625	-0.0	-0.0	-0.0	-0.0	-0.0	-0.0	220549.25	4541.69140625	-3205.402099609375
0.185	-0.0	-0.0	-0.0	-0.0	-0.0	-0.0	-5.863966464996338	-6.386207103729248	-809.611328125	-0.0	-0.0	-0.0	-0.0	-0.0	-0.0	219613.40625	4238.3681640625	-2942.532470703125
0.1855	-0.0	-0.0	-0.0	-0.0	-0.0	-0.0	-5.930152893066406	-7.25131893157959	-808.1799926757812	-0.0	-0.0	-0.0	-0.0	-0.0	-0.0	218297.53125	4231.44970703125	-2824.142822265625
0.186	-0.0	-0.0	-0.0	-0.0	-0.0	-0.0	-5.854911804199219	-7.869495868682861	-805.4927978515625	-0.0	-0.0	-0.0	-0.0	-0.0	-0.0	217643.1875	3903.48583984375	-2649.239990234375
0.1865	-0.0	-0.0	-0.0	-0.0	-0.0	-0.0	-6.116619110107422	-8.567203521728516	-803.0487060546875	-0.0	-0.0	-0.0	-0.0	-0.0	-0.0	216241.015625	3932.003662109375	-2522.051025390625
0.187	-0.0	-0.0	-0.0	-0.0	-0.0	-0.0	-5.376258850097656	-9.909501075744627	-800.2382202148438	-0.0	-0.0	-0.0	-0.0	-0.0	-0.0	215451.9375	3751.096923828125	-2054.62646484375
0.1875	-0.0	-0.0	-0.0	-0.0	-0.0	-0.0	-4.866043567657471	-11.229846954345703	-797.4965209960938	-0.0	-0.0	-0.0	-0.0	-0.0	-0.0	214562.046875	4116.1875	-1873.6929931640625
0.188	-0.0	-0.0	-0.0	-0.0	-0.0	-0.0	-4.506998538970947	-12.02463150024414	-797.4283447265625	-0.0	-0.0	-0.0	-0.0	-0.0	-0.0	213741.25	3970.040283203125	-1723.8896484375
0.1885	-0.0	-0.0	-0.0	-0.0	-0.0	-0.0	-4.173691749572754	-12.280980110168455	-796.6965942382812	-0.0	-0.0	-0.0	-0.0	-0.0	-0.0	213170.328125	3877.541748046875	-1487.8568115234375
0.189	-0.0	-0.0	-0.0	-0.0	-0.0	-0.0	-3.983490705490112	-12.70986557006836	-795.2838134765625	-0.0	-0.0	-0.0	-0.0	-0.0	-0.0	212388.109375	4053.78759765625	-1511.8260498046875
0.1895	-0.0	-0.0	-0.0	-0.0	-0.0	-0.0	-4.144147872924805	-13.239870071411133	-794.037109375	-0.0	-0.0	-0.0	-0.0	-0.0	-0.0	212328.578125	3944.806640625	-1307.3048095703125
0.19	-0.0	-0.0	-0.0	-0.0	-0.0	-0.0	-4.0555830001831055	-13.424896240234377	-791.92529296875	-0.0	-0.0	-0.0	-0.0	-0.0	-0.0	211626.875	4004.4990234375	-1202.653076171875
0.1905	-0.0	-0.0	-0.0	-0.0	-0.0	-0.0	-3.6495862007141113	-13.765793800354004	-791.2102661132812	-0.0	-0.0	-0.0	-0.0	-0.0	-0.0	211519.40625	4293.02490234375	-1167.1507568359375
0.191	-0.0	-0.0	-0.0	-0.0	-0.0	-0.0	-4.229343891143799	-14.581263542175291	-793.3209838867188	-0.0	-0.0	-0.0	-0.0	-0.0	-0.0	211691.96875	4565.93994140625	-1279.5162353515625
0.1915	-0.0	-0.0	-0.0	-0.0	-0.0	-0.0	-4.42737340927124	-15.36797332763672	-794.3359985351562	-0.0	-0.0	-0.0	-0.0	-0.0	-0.0	211757.515625	4716.359375	-1289.432373046875
0.192	-0.0	-0.0	-0.0	-0.0	-0.0	-0.0	-4.080696105957031	-15.785415649414062	-793.3043212890625	-0.0	-0.0	-0.0	-0.0	-0.0	-0.0	211824.703125	4740.6708984375	-1321.5987548828125
0.1925	-0.0	-0.0	-0.0	-0.0	-0.0	-0.0	-4.524250030517578	-15.9058837890625	-793.7162475585938	-0.0	-0.0	-0.0	-0.0	-0.0	-0.0	212107.75	4790.23974609375	-1432.471923828125
0.193	-0.0	-0.0	-0.0	-0.0	-0.0	-0.0	-5.044573783874512	-15.978299140930176	-795.3517456054688	-0.0	-0.0	-0.0	-0.0	-0.0	-0.0	212046.875	4920.66650390625	-1548.8453369140625
0.1935	-0.0	-0.0	-0.0	-0.0	-0.0	-0.0	-5.048628807067871	-15.360121726989746	-795.3363647460938	-0.0	-0.0	-0.0	-0.0	-0.0	-0.0	212474.75	5319.93603515625	-1582.3231201171875
0.194	-0.0	-0.0	-0.0	-0.0	-0.0	-0.0	-4.69386100769043	-14.845819473266602	-793.667724609375	-0.0	-0.0	-0.0	-0.0	-0.0	-0.0	212387.796875	5192.90673828125	-1639.937255859375
0.1945	-0.0	-0.0	-0.0	-0.0	-0.0	-0.0	-5.06427001953125	-14.914782524108888	-793.21142578125	-0.0	-0.0	-0.0	-0.0	-0.0	-0.0	212494.40625	5407.43212890625	-1645.3956298828125
0.195	-0.0	-0.0	-0.0	-0.0	-0.0	-0.0	-5.149065971374512	-15.106831550598145	-792.8779907226562	-0.0	-0.0	-0.0	-0.0	-0.0	-0.0	212324.046875	5966.5810546875	-1900.861083984375
0.1955	-0.0	-0.0	-0.0	-0.0	-0.0	-0.0	-5.496265888214111	-15.460081100463867	-792.2249755859375	-0.0	-0.0	-0.0	-0.0	-0.0	-0.0	212351.609375	5785.16748046875	-1850.821044921875
0.196	-0.0	-0.0	-0.0	-0.0	-0.0	-0.0	-5.93609094619751	-15.986225128173828	-789.7513427734375	-0.0	-0.0	-0.0	-0.0	-0.0	-0.0	212315.640625	6154.95654296875	-2145.352294921875
0.1965	-0.0	-0.0	-0.0	-0.0	-0.0	-0.0	-5.758718967437744	-15.632938385009766	-788.0057373046875	-0.0	-0.0	-0.0	-0.0	-0.0	-0.0	212082.8125	6224.94580078125	-2261.282470703125
0.197	-0.0	-0.0	-0.0	-0.0	-0.0	-0.0	-5.755090713500977	-15.894216537475586	-784.8782348632812	-0.0	-0.0	-0.0	-0.0	-0.0	-0.0	211693.4375	6292.21435546875	-2439.343017578125
0.1975	-0.0	-0.0	-0.0	-0.0	-0.0	-0.0	-5.49273681640625	-15.916152954101562	-779.7276611328125	-0.0	-0.0	-0.0	-0.0	-0.0	-0.0	211377.359375	6574.515625	-2550.4755859375
0.198	-0.0	-0.0	-0.0	-0.0	-0.0	-0.0	-5.049238204956055	-16.593608856201172	-775.8005981445312	-0.0	-0.0	-0.0	-0.0	-0.0	-0.0	210944.421875	6428.369140625	-2535.332275390625
0.1985	-0.0	-0.0	-0.0	-0.0	-0.0	-0.0	-4.250916004180908	-16.593721389770508	-773.050048828125	-0.0	-0.0	-0.0	-0.0	-0.0	-0.0	210689.109375	6122.83056640625	-2677.001708984375
0.199	-0.0	-0.0	-0.0	-0.0	-0.0	-0.0	-3.388826608657837	-15.60810375213623	-770.9407958984375	-0.0	-0.0	-0.0	-0.0	-0.0	-0.0	211742.015625	6111.841796875	-2791.219482421875
0.1995	-0.0	-0.0	-0.0	-0.0	-0.0	-0.0	-2.469758987426758	-12.990328788757324	-771.9464111328125	-0.0	-0.0	-0.0	-0.0	-0.0	-0.0	212788.90625	5869.77392578125	-2819.5927734375
0.2	-0.0	-0.0	-0.0	-0.0	-0.0	-0.0	-0.6209754943847656	-10.503314971923828	-773.3570556640625	-0.0	-0.0	-0.0	-0.0	-0.0	-0.0	213911.890625	5744.3349609375	-2639.69970703125
0.2005	-0.0	-0.0	-0.0	-0.0	-0.0	-0.0	1.1601618528366089	-7.822728157043457	-775.1846923828125	-0.0	-0.0	-0.0	-0.0	-0.0	-0.0	215615.9375	5026.63232421875	-2228.279296875
0.201	-0.0	-0.0	-0.0	-0.0	-0.0	-0.0	2.4054908752441406	-4.144282817840576	-777.8963012695312	-0.0	-0.0	-0.0	-0.0	-0.0	-0.0	216996.25	4559.1611328125	-1901.284423828125
0.2015	-0.0	-0.0	-0.0	-0.0	-0.0	-0.0	4.155824184417725	-2.636127233505249	-777.2115478515625	-0.0	-0.0	-0.0	-0.0	-0.0	-0.0	218364.640625	4096.5146484375	-1714.82177734375
0.202	-0.0	-0.0	-0.0	-0.0	-0.0	-0.0	4.514175415039063	-0.7232909202575684	-776.4470825195312	-0.0	-0.0	-0.0	-0.0	-0.0	-0.0	218588.34375	3695.66845703125	-1393.4290771484375
0.2025	-0.0	-0.0	-0.0	-0.0	-0.0	-0.0	4.524250030517578	-0.5232981443405151	-773.370849609375	-0.0	-0.0	-0.0	-0.0	-0.0	-0.0	218829.1875	3406.839599609375	-1184.590576171875
0.203	-0.0	-0.0	-0.0	-0.0	-0.0	-0.0	3.6338491439819336	-0.6018585562705994	-771.2110595703125	-0.0	-0.0	-0.0	-0.0	-0.0	-0.0	219032.515625	2960.720947265625	-1304.988525390625
0.20350000000000001	-0.0	-0.0	-0.0	-0.0	-0.0	-0.0	3.183821439743042	-0.4318844377994537	-769.866455078125	-0.0	-0.0	-0.0	-0.0	-0.0	-0.0	218689.65625	2472.202880859375	-1305.2403564453125
0.20400000000000001	-0.0	-0.0	-0.0	-0.0	-0.0	-0.0	2.579050064086914	-0.167029932141304	-765.9119873046875	-0.0	-0.0	-0.0	-0.0	-0.0	-0.0	218280.921875	2371.0693359375	-1302.3497314453125
0.20450000000000002	-0.0	-0.0	-0.0	-0.0	-0.0	-0.0	2.2305445671081543	0.778996467590332	-762.896240234375	-0.0	-0.0	-0.0	-0.0	-0.0	-0.0	218292.453125	2180.720703125	-1070.3929443359375
0.20500000000000002	-0.0	-0.0	-0.0	-0.0	-0.0	-0.0	2.8419013023376465	1.7727185487747192	-759.4793090820312	-0.0	-0.0	-0.0	-0.0	-0.0	-0.0	218237.40625	1806.4283447265625	-975.3864135742188
0.20550000000000002	-0.0	-0.0	-0.0	-0.0	-0.0	-0.0	2.6862738132476807	3.015357732772827	-762.1365966796875	-0.0	-0.0	-0.0	-0.0	-0.0	-0.0	219087.78125	1619.8662109375	-569.2835083007812
0.20600000000000002	-0.0	-0.0	-0.0	-0.0	-0.0	-0.0	2.936729431152344	4.583494663238525	-762.8475952148438	-0.0	-0.0	-0.0	-0.0	-0.0	-0.0	220055.59375	998.0736083984376	-351.6820068359375
0.20650000000000002	-0.0	-0.0	-0.0	-0.0	-0.0	-0.0	3.539270401000977	5.119617462158203	-760.885498046875	-0.0	-0.0	-0.0	-0.0	-0.0	-0.0	220689.328125	802.1845703125	-206.8941192626953
